<?xml version="1.0" encoding="UTF-8"?>
<!DOCTYPE svg PUBLIC "-//W3C//DTD SVG 1.1//EN" "http://www.w3.org/Graphics/SVG/1.1/DTD/svg11.dtd">
<svg xmlns="http://www.w3.org/2000/svg" version="1.1" width="32px" height="32px" style="shape-rendering:geometricPrecision; text-rendering:geometricPrecision; image-rendering:optimizeQuality; fill-rule:evenodd; clip-rule:evenodd" xmlns:xlink="http://www.w3.org/1999/xlink">
<g><path style="opacity:0.609" fill="#fefffe" d="M 7.5,-0.5 C 12.1667,-0.5 16.8333,-0.5 21.5,-0.5C 24.1842,1.87072 25.5175,4.87072 25.5,8.5C 28.089,8.46095 30.089,9.46095 31.5,11.5C 31.5,12.8333 31.5,14.1667 31.5,15.5C 30.0755,13.8557 28.4089,12.3557 26.5,11C 19.8703,11.1745 13.537,10.0079 7.5,7.5C 3.77966,7.88667 1.77966,9.88667 1.5,13.5C 25.5,14.1667 25.5,14.8333 1.5,15.5C 1.33449,19.5138 1.50115,23.5138 2,27.5C 2.5,28 3,28.5 3.5,29C 8.60594,28.8862 13.2726,29.7195 17.5,31.5C 12.1667,31.5 6.83333,31.5 1.5,31.5C 1.16667,30.5 0.5,29.8333 -0.5,29.5C -0.5,22.5 -0.5,15.5 -0.5,8.5C 3.82934,7.01142 6.496,4.01142 7.5,-0.5 Z M 9.5,1.5 C 12.1667,1.5 14.8333,1.5 17.5,1.5C 17.1989,5.61888 19.1989,7.61888 23.5,7.5C 22.1667,7.83333 20.8333,8.16667 19.5,8.5C 15.4293,7.63463 11.4293,6.46796 7.5,5C 8.30501,3.88732 8.97168,2.72065 9.5,1.5 Z"/></g>
<g><path style="opacity:0.595" fill="#fefffe" d="M 31.5,18.5 C 31.5,19.8333 31.5,21.1667 31.5,22.5C 30.1667,23.1667 30.1667,23.8333 31.5,24.5C 31.5,25.8333 31.5,27.1667 31.5,28.5C 28.715,27.9162 27.0483,28.9162 26.5,31.5C 25.1667,31.5 23.8333,31.5 22.5,31.5C 21.3126,29.0246 19.3126,28.0246 16.5,28.5C 17.8333,25.1667 17.8333,21.8333 16.5,18.5C 19.5415,18.4487 22.2082,17.4487 24.5,15.5C 26.2038,17.8493 28.5371,18.8493 31.5,18.5 Z M 26.5,20.5 C 25.1667,20.5 23.8333,20.5 22.5,20.5C 23.4581,16.9183 24.7914,16.9183 26.5,20.5 Z M 22.5,20.5 C 21.1667,22.5 21.1667,24.5 22.5,26.5C 21.448,26.6495 20.448,26.4828 19.5,26C 20.8333,24.3333 20.8333,22.6667 19.5,21C 20.448,20.5172 21.448,20.3505 22.5,20.5 Z M 26.5,20.5 C 27.6935,20.9704 28.3601,21.9704 28.5,23.5C 28.3601,25.0296 27.6935,26.0296 26.5,26.5C 27.8333,24.5 27.8333,22.5 26.5,20.5 Z M 22.5,26.5 C 23.8333,26.5 25.1667,26.5 26.5,26.5C 24.7914,30.0817 23.4581,30.0817 22.5,26.5 Z"/></g>
<g><path style="opacity:0.551" fill="#fefffe" d="M 22.5,20.5 C 23.8333,20.5 25.1667,20.5 26.5,20.5C 27.8333,22.5 27.8333,24.5 26.5,26.5C 25.1667,26.5 23.8333,26.5 22.5,26.5C 21.1667,24.5 21.1667,22.5 22.5,20.5 Z"/></g>
</svg>
