<?xml version="1.0" encoding="UTF-8"?>
<!DOCTYPE svg PUBLIC "-//W3C//DTD SVG 1.1//EN" "http://www.w3.org/Graphics/SVG/1.1/DTD/svg11.dtd">
<svg xmlns="http://www.w3.org/2000/svg" version="1.1" width="32px" height="32px" style="shape-rendering:geometricPrecision; text-rendering:geometricPrecision; image-rendering:optimizeQuality; fill-rule:evenodd; clip-rule:evenodd" xmlns:xlink="http://www.w3.org/1999/xlink">
<g><path style="opacity:0.797" fill="#fefffe" d="M 31.5,6.5 C 31.5,13.5 31.5,20.5 31.5,27.5C 28.7664,30.1426 25.4331,31.1426 21.5,30.5C 21.5,29.5 21.5,28.5 21.5,27.5C 24.1977,27.5497 26.3644,26.5497 28,24.5C 28.499,20.1794 28.6657,15.8461 28.5,11.5C 19.8333,11.5 11.1667,11.5 2.5,11.5C 2.33432,15.8461 2.50098,20.1794 3,24.5C 4.73423,26.4506 6.9009,27.4506 9.5,27.5C 9.5,28.5 9.5,29.5 9.5,30.5C 5.56695,31.1426 2.23362,30.1426 -0.5,27.5C -0.5,19.5 -0.5,11.5 -0.5,3.5C 1.55179,1.07751 4.21846,0.0775094 7.5,0.5C 14.2482,2.81717 21.2482,3.98384 28.5,4C 29.6906,4.69794 30.6906,5.53128 31.5,6.5 Z M 6.5,3.5 C 13.3237,5.71053 20.3237,7.21053 27.5,8C 19.1467,8.83174 10.8134,8.66507 2.5,7.5C 3.54868,5.78445 4.88201,4.45111 6.5,3.5 Z M 21.5,27.5 C 21.5,26.5 21.5,25.5 21.5,24.5C 20.1667,24.5 18.8333,24.5 17.5,24.5C 17.5,21.5 17.5,18.5 17.5,15.5C 16.1667,15.5 14.8333,15.5 13.5,15.5C 13.5,18.5 13.5,21.5 13.5,24.5C 12.1667,24.5 10.8333,24.5 9.5,24.5C 9.5,25.5 9.5,26.5 9.5,27.5C 6.9009,27.4506 4.73423,26.4506 3,24.5C 2.50098,20.1794 2.33432,15.8461 2.5,11.5C 11.1667,11.5 19.8333,11.5 28.5,11.5C 28.6657,15.8461 28.499,20.1794 28,24.5C 26.3644,26.5497 24.1977,27.5497 21.5,27.5 Z"/></g>
<g><path style="opacity:0.655" fill="#fefffe" d="M 21.5,27.5 C 17.5,31.5 13.5,31.5 9.5,27.5C 9.5,26.5 9.5,25.5 9.5,24.5C 10.8333,24.5 12.1667,24.5 13.5,24.5C 13.5,21.5 13.5,18.5 13.5,15.5C 14.8333,15.5 16.1667,15.5 17.5,15.5C 17.5,18.5 17.5,21.5 17.5,24.5C 18.8333,24.5 20.1667,24.5 21.5,24.5C 21.5,25.5 21.5,26.5 21.5,27.5 Z"/></g>
</svg>
