<?xml version="1.0" encoding="UTF-8"?>
<!DOCTYPE svg PUBLIC "-//W3C//DTD SVG 1.1//EN" "http://www.w3.org/Graphics/SVG/1.1/DTD/svg11.dtd">
<svg xmlns="http://www.w3.org/2000/svg" version="1.1" width="32px" height="32px" style="shape-rendering:geometricPrecision; text-rendering:geometricPrecision; image-rendering:optimizeQuality; fill-rule:evenodd; clip-rule:evenodd" xmlns:xlink="http://www.w3.org/1999/xlink">
<g><path style="opacity:0.771" fill="#fefffe" d="M 31.5,3.5 C 31.5,9.83333 31.5,16.1667 31.5,22.5C 30.3172,23.5045 28.9839,24.3378 27.5,25C 24.1182,25.1764 20.7848,25.6764 17.5,26.5C 19.396,27.4656 21.396,27.7989 23.5,27.5C 23.5,28.5 23.5,29.5 23.5,30.5C 18.1667,30.5 12.8333,30.5 7.5,30.5C 7.5,29.5 7.5,28.5 7.5,27.5C 9.60395,27.7989 11.604,27.4656 13.5,26.5C 10.2152,25.6764 6.88182,25.1764 3.5,25C 2.01608,24.3378 0.682751,23.5045 -0.5,22.5C -0.5,16.1667 -0.5,9.83333 -0.5,3.5C 0.626561,2.87833 1.62656,2.04499 2.5,1C 11.1667,0.333333 19.8333,0.333333 28.5,1C 29.3734,2.04499 30.3734,2.87833 31.5,3.5 Z M 6.5,3.5 C 12.5092,3.33385 18.5092,3.50051 24.5,4C 25.624,4.24917 26.624,4.74917 27.5,5.5C 28.6103,10.1113 28.7769,14.778 28,19.5C 27.5,20 27,20.5 26.5,21C 19.1667,21.6667 11.8333,21.6667 4.5,21C 4,20.5 3.5,20 3,19.5C 2.33333,15.1667 2.33333,10.8333 3,6.5C 4.14508,5.36362 5.31174,4.36362 6.5,3.5 Z"/></g>
<g><path style="opacity:0.788" fill="#fefffe" d="M 9.5,5.5 C 10.3171,7.96864 10.8171,10.6353 11,13.5C 17.2057,18.6807 16.039,20.5141 7.5,19C 3.08831,13.7142 3.75498,9.21424 9.5,5.5 Z"/></g>
<g><path style="opacity:0.73" fill="#fefffe" d="M 12.5,5.5 C 18.5634,7.66882 19.8967,11.3355 16.5,16.5C 12.8476,13.8245 11.5142,10.1578 12.5,5.5 Z"/></g>
<g><path style="opacity:0.527" fill="#fefffe" d="M 20.5,5.5 C 22.5,5.5 24.5,5.5 26.5,5.5C 26.5,6.83333 26.5,8.16667 26.5,9.5C 24.5,9.5 22.5,9.5 20.5,9.5C 20.5,8.16667 20.5,6.83333 20.5,5.5 Z"/></g>
<g><path style="opacity:0.703" fill="#fefffe" d="M 20.5,11.5 C 22.5,11.5 24.5,11.5 26.5,11.5C 26.5,12.5 26.5,13.5 26.5,14.5C 24.5,14.5 22.5,14.5 20.5,14.5C 20.5,13.5 20.5,12.5 20.5,11.5 Z"/></g>
<g><path style="opacity:0.703" fill="#fefffe" d="M 20.5,16.5 C 22.5,16.5 24.5,16.5 26.5,16.5C 26.5,17.5 26.5,18.5 26.5,19.5C 24.5,19.5 22.5,19.5 20.5,19.5C 20.5,18.5 20.5,17.5 20.5,16.5 Z"/></g>
</svg>
