<?xml version="1.0" encoding="UTF-8"?>
<!DOCTYPE svg PUBLIC "-//W3C//DTD SVG 1.1//EN" "http://www.w3.org/Graphics/SVG/1.1/DTD/svg11.dtd">
<svg xmlns="http://www.w3.org/2000/svg" version="1.1" width="32px" height="32px" style="shape-rendering:geometricPrecision; text-rendering:geometricPrecision; image-rendering:optimizeQuality; fill-rule:evenodd; clip-rule:evenodd" xmlns:xlink="http://www.w3.org/1999/xlink">
<g><path style="opacity:0.553" fill="#fefffe" d="M 1.5,0.5 C 4.1569,0.162022 6.49024,0.828689 8.5,2.5C 13.1667,1.16667 17.8333,1.16667 22.5,2.5C 30.1667,-1.16667 32.1667,0.833333 28.5,8.5C 29.8333,13.1667 29.8333,17.8333 28.5,22.5C 30.5923,24.7886 30.9256,27.2886 29.5,30C 25.0234,29.0887 20.3567,28.5887 15.5,28.5C 11.4387,28.3182 7.6054,28.9848 4,30.5C 0.707154,29.8621 -0.292846,27.8621 1,24.5C 1.69238,23.9747 2.19238,23.3081 2.5,22.5C 1.16667,17.8333 1.16667,13.1667 2.5,8.5C 0.341494,6.04561 0.00816083,3.37894 1.5,0.5 Z M 3.5,2.5 C 5.04814,2.82124 5.71481,3.82124 5.5,5.5C 2.75236,5.59829 2.0857,4.59829 3.5,2.5 Z M 25.5,2.5 C 29.31,3.75419 29.31,4.75419 25.5,5.5C 25.5,4.5 25.5,3.5 25.5,2.5 Z M 7.5,4.5 C 12.8333,4.5 18.1667,4.5 23.5,4.5C 23.5,5.5 23.5,6.5 23.5,7.5C 24.5,7.5 25.5,7.5 26.5,7.5C 26.5,12.8333 26.5,18.1667 26.5,23.5C 19.1667,27.5 11.8333,27.5 4.5,23.5C 4.5,18.1667 4.5,12.8333 4.5,7.5C 5.5,7.5 6.5,7.5 7.5,7.5C 7.5,6.5 7.5,5.5 7.5,4.5 Z M 9.5,10.5 C 11.8333,10.5 14.1667,10.5 16.5,10.5C 16.5,11.8333 16.5,13.1667 16.5,14.5C 14.1667,15.8333 11.8333,15.8333 9.5,14.5C 9.5,13.1667 9.5,11.8333 9.5,10.5 Z M 2.5,25.5 C 3.5,25.5 4.5,25.5 5.5,25.5C 4.75419,29.31 3.75419,29.31 2.5,25.5 Z M 25.5,25.5 C 28.9571,25.6672 29.2904,26.6672 26.5,28.5C 25.6143,27.675 25.281,26.675 25.5,25.5 Z"/></g>
<g><path style="opacity:0.562" fill="#fefffe" d="M 7.5,8.5 C 11.1667,8.5 14.8333,8.5 18.5,8.5C 18.6641,11.1873 18.4974,13.854 18,16.5C 14.6667,17.8333 11.3333,17.8333 8,16.5C 7.50258,13.854 7.33591,11.1873 7.5,8.5 Z M 9.5,10.5 C 9.5,11.8333 9.5,13.1667 9.5,14.5C 11.8333,15.8333 14.1667,15.8333 16.5,14.5C 16.5,13.1667 16.5,11.8333 16.5,10.5C 14.1667,10.5 11.8333,10.5 9.5,10.5 Z"/></g>
<g><path style="opacity:0.571" fill="#fefffe" d="M 20.5,13.5 C 21.4959,13.4142 22.3292,13.7476 23,14.5C 23.4974,17.146 23.6641,19.8127 23.5,22.5C 19.8333,22.5 16.1667,22.5 12.5,22.5C 12.281,21.325 12.6143,20.325 13.5,19.5C 16.0841,20.3928 18.7508,20.7261 21.5,20.5C 21.3259,18.139 20.9926,15.8056 20.5,13.5 Z"/></g>
</svg>
