<?xml version="1.0" encoding="UTF-8"?>
<!DOCTYPE svg PUBLIC "-//W3C//DTD SVG 1.1//EN" "http://www.w3.org/Graphics/SVG/1.1/DTD/svg11.dtd">
<svg xmlns="http://www.w3.org/2000/svg" version="1.1" width="32px" height="32px" style="shape-rendering:geometricPrecision; text-rendering:geometricPrecision; image-rendering:optimizeQuality; fill-rule:evenodd; clip-rule:evenodd" xmlns:xlink="http://www.w3.org/1999/xlink">
<g><path style="opacity:0.621" fill="#fefffe" d="M 1.5,-0.5 C 5.16667,-0.5 8.83333,-0.5 12.5,-0.5C 12.9175,0.221579 13.5842,0.721579 14.5,1C 18.8333,1.33333 23.1667,1.66667 27.5,2C 28.9839,2.66218 30.3172,3.49551 31.5,4.5C 31.5,7.83333 31.5,11.1667 31.5,14.5C 29.744,13.4479 29.0773,11.7812 29.5,9.5C 20.1667,9.5 10.8333,9.5 1.5,9.5C 1.33407,14.5111 1.50074,19.5111 2,24.5C 2.90252,25.7014 4.06919,26.5348 5.5,27C 8.22626,27.1816 10.8929,27.6816 13.5,28.5C 8.40552,30.1941 3.73885,29.5274 -0.5,26.5C -0.5,18.1667 -0.5,9.83333 -0.5,1.5C 0.5,1.16667 1.16667,0.5 1.5,-0.5 Z M 3.5,1.5 C 10.7213,2.86505 18.0546,3.69838 25.5,4C 27.1161,4.61524 28.4495,5.61524 29.5,7C 20.1726,7.49979 10.8393,7.66645 1.5,7.5C 1.2525,5.14166 1.91917,3.14166 3.5,1.5 Z"/></g>
<g><path style="opacity:0.517" fill="#fefffe" d="M 31.5,18.5 C 31.5,21.5 31.5,24.5 31.5,27.5C 29.8333,28.5 28.5,29.8333 27.5,31.5C 24.5,31.5 21.5,31.5 18.5,31.5C 12.3232,26.4204 11.9899,20.9204 17.5,15C 23.2013,12.4364 27.868,13.6031 31.5,18.5 Z M 27.5,18.5 C 25.5165,18.3832 23.8498,19.0499 22.5,20.5C 21.3777,19.3698 20.0443,18.7031 18.5,18.5C 19.4919,16.9735 20.9919,16.3068 23,16.5C 25.0081,16.3068 26.5081,16.9735 27.5,18.5 Z M 18.5,18.5 C 18.7031,20.0443 19.3698,21.3777 20.5,22.5C 19.0499,23.8498 18.3832,25.5165 18.5,27.5C 16.9735,26.5081 16.3068,25.0081 16.5,23C 16.3068,20.9919 16.9735,19.4919 18.5,18.5 Z M 27.5,18.5 C 29.8289,20.9959 29.9956,23.6626 28,26.5C 26.8333,25.3333 25.6667,24.1667 24.5,23C 26.1412,21.871 27.1412,20.371 27.5,18.5 Z M 18.5,27.5 C 20.371,27.1412 21.871,26.1412 23,24.5C 24.1667,25.6667 25.3333,26.8333 26.5,28C 23.6626,29.9956 20.9959,29.8289 18.5,27.5 Z"/></g>
</svg>
