<?xml version="1.0" encoding="UTF-8"?>
<!DOCTYPE svg PUBLIC "-//W3C//DTD SVG 1.1//EN" "http://www.w3.org/Graphics/SVG/1.1/DTD/svg11.dtd">
<svg xmlns="http://www.w3.org/2000/svg" version="1.1" width="32px" height="32px" style="shape-rendering:geometricPrecision; text-rendering:geometricPrecision; image-rendering:optimizeQuality; fill-rule:evenodd; clip-rule:evenodd" xmlns:xlink="http://www.w3.org/1999/xlink">
<g><path style="opacity:0.757" fill="#fefffe" d="M 20.5,-0.5 C 23.1667,-0.5 25.8333,-0.5 28.5,-0.5C 29.1667,0.833333 30.1667,1.83333 31.5,2.5C 31.5,4.16667 31.5,5.83333 31.5,7.5C 28.9255,6.11882 26.4255,4.45215 24,2.5C 19.0602,5.57678 18.7268,8.91011 23,12.5C 23.6667,17.8333 23.6667,23.1667 23,28.5C 22.3021,29.6906 21.4687,30.6906 20.5,31.5C 14.5,31.5 8.5,31.5 2.5,31.5C 1.5,30.5 0.5,29.5 -0.5,28.5C -0.5,23.1667 -0.5,17.8333 -0.5,12.5C 0.682751,11.4955 2.01608,10.6622 3.5,10C 7.82056,9.50098 12.1539,9.33432 16.5,9.5C 15.7494,5.18041 17.0827,1.84708 20.5,-0.5 Z M 4.5,13.5 C 9.17853,13.3342 13.8452,13.5008 18.5,14C 20.9955,18.3228 21.1622,22.8228 19,27.5C 13.8,28.9213 8.63331,28.7546 3.5,27C 1.94415,22.2916 2.27748,17.7916 4.5,13.5 Z"/></g>
<g><path style="opacity:0.575" fill="#fefffe" d="M 10.5,17.5 C 11.4959,17.4142 12.3292,17.7476 13,18.5C 13.4935,20.1341 13.6602,21.8008 13.5,23.5C 12.1667,23.5 10.8333,23.5 9.5,23.5C 9.32526,21.3792 9.65859,19.3792 10.5,17.5 Z"/></g>
</svg>
