<?xml version="1.0" encoding="UTF-8"?>
<!DOCTYPE svg PUBLIC "-//W3C//DTD SVG 1.1//EN" "http://www.w3.org/Graphics/SVG/1.1/DTD/svg11.dtd">
<svg xmlns="http://www.w3.org/2000/svg" version="1.1" width="32px" height="32px" style="shape-rendering:geometricPrecision; text-rendering:geometricPrecision; image-rendering:optimizeQuality; fill-rule:evenodd; clip-rule:evenodd" xmlns:xlink="http://www.w3.org/1999/xlink">
<g><path style="opacity:0.724" fill="#fefffe" d="M 9.5,-0.5 C 13.5,-0.5 17.5,-0.5 21.5,-0.5C 22.2613,0.390917 23.2613,1.05758 24.5,1.5C 25.2975,1.04311 25.6309,0.376442 25.5,-0.5C 26.8333,-0.5 28.1667,-0.5 29.5,-0.5C 31.2755,5.97527 28.9421,9.64194 22.5,10.5C 23.7345,12.3983 23.4011,14.065 21.5,15.5C 23.9114,17.3194 24.078,19.3194 22,21.5C 21.586,21.0426 21.086,20.7093 20.5,20.5C 18.8333,21.5 17.1667,22.5 15.5,23.5C 12.6121,20.5379 11.2787,21.2046 11.5,25.5C 8.4017,25.4125 8.06837,25.9125 10.5,27C 19.829,29.4955 25.829,25.9955 28.5,16.5C 29.325,15.6143 30.325,15.281 31.5,15.5C 31.5,17.5 31.5,19.5 31.5,21.5C 29.1667,25.8333 25.8333,29.1667 21.5,31.5C 17.5,31.5 13.5,31.5 9.5,31.5C 8.73867,30.6091 7.73867,29.9424 6.5,29.5C 5.70245,29.9569 5.36912,30.6236 5.5,31.5C 4.16667,31.5 2.83333,31.5 1.5,31.5C -0.275475,25.0247 2.05786,21.3581 8.5,20.5C 7.26553,18.6017 7.59887,16.935 9.5,15.5C 7.08863,13.6806 6.92196,11.6806 9,9.5C 9.41395,9.95735 9.91395,10.2907 10.5,10.5C 12.1667,9.5 13.8333,8.5 15.5,7.5C 18.3879,10.4621 19.7213,9.79539 19.5,5.5C 20.552,5.64945 21.552,5.48278 22.5,5C 11.9121,0.795207 5.24547,4.29521 2.5,15.5C 1.5,15.5 0.5,15.5 -0.5,15.5C -0.5,13.5 -0.5,11.5 -0.5,9.5C 1.83333,5.16667 5.16667,1.83333 9.5,-0.5 Z M 14.5,14.5 C 16.337,14.6395 16.6704,15.3061 15.5,16.5C 14.7025,16.0431 14.3691,15.3764 14.5,14.5 Z"/></g>
</svg>
